<svg xmlns="http://www.w3.org/2000/svg" version="1.1" xmlns:xlink="http://www.w3.org/1999/xlink" xmlns:svgjs="http://svgjs.dev/svgjs" width="2000" height="1500" viewBox="0 0 2000 1500"><rect width="2000" height="1500" fill="#000000"></rect><g transform="matrix(0.25806451612903225,0,0,0.25806451612903225,741.8328247641076,248.38709677419342)"><svg viewBox="0 0 128 248" data-background-color="#000000" preserveAspectRatio="xMidYMid meet" height="3875" width="2000" xmlns="http://www.w3.org/2000/svg" xmlns:xlink="http://www.w3.org/1999/xlink"><g id="tight-bounds" transform="matrix(1,0,0,1,0.02545945850130238,0.4000000000000057)"><svg viewBox="0 0 127.94908108299744 247.2" height="247.2" width="127.94908108299744"><g><svg viewBox="0 0 283.73535971223015 548.1819824510158" height="247.2" width="127.94908108299744"><g></g><g></g><g transform="matrix(1,0,0,1,0.7058093525179743,300.9819824510158)"><svg viewBox="0 0 282.3237410071942 247.2" height="247.2" width="282.3237410071942"><g id="textblocktransform"><svg viewBox="0 0 282.3237410071942 247.2" height="247.2" width="282.3237410071942" id="textblock"><g><svg viewBox="0 0 282.3237410071942 247.2" height="247.2" width="282.3237410071942"><g transform="matrix(1,0,0,1,0,0)"><svg width="282.3237410071942" viewBox="2.76 -39.48 46.510000000000005 40.73" height="247.2" data-palette-color="url(#7843e41e-e99b-4fc0-9635-62c8d9cf98b5)"></svg></g></svg></g></svg></g></svg></g><g transform="matrix(1,0,0,1,54.62964388489206,0)"><svg viewBox="0 0 174.47607194244603 110.50151223021581" height="110.50151223021581" width="174.47607194244603"><g><svg xmlns:x="http://ns.adobe.com/Extensibility/1.0/" xmlns:i="http://ns.adobe.com/AdobeIllustrator/10.0/" xmlns:graph="http://ns.adobe.com/Graphs/1.0/" xmlns="http://www.w3.org/2000/svg" xmlns:xlink="http://www.w3.org/1999/xlink" xmlns:a="http://ns.adobe.com/AdobeSVGViewerExtensions/3.0/" version="1.1" x="0" y="0" viewBox="5 25 90 57" enable-background="new 0 0 100 100" xml:space="preserve" height="110.50151223021581" width="174.47607194244603" class="icon-icon-0" data-fill-palette-color="accent" id="icon-0"></svg></g></svg></g><g></g></svg></g><defs></defs><mask id="b08a930a-4a14-43f8-ab79-0600cc36bf20"><g id="SvgjsG6741"><svg viewBox="0 0 127.94908108299744 247.2" height="247.2" width="127.94908108299744"><g><svg viewBox="0 0 283.73535971223015 548.1819824510158" height="247.2" width="127.94908108299744"><g><rect width="283.73535971223015" height="22.292751110399998" x="0" y="168.8594994302158" fill="white" opacity="1" stroke-width="0" stroke="transparent" fill-opacity="1" class="rect-yte-0" rx="1%" id="SvgjsRect6740" data-palette-color="url(#7843e41e-e99b-4fc0-9635-62c8d9cf98b5)"></rect></g><g><rect width="283.73535971223015" height="22.292751110399998" x="0" y="220.3312441406158" fill="white" opacity="1" stroke-width="0" stroke="transparent" fill-opacity="1" class="rect-yte-1" rx="1%" id="SvgjsRect6739" data-palette-color="url(#7843e41e-e99b-4fc0-9635-62c8d9cf98b5)"></rect></g><g transform="matrix(1,0,0,1,0.7058093525179743,300.9819824510158)"><svg viewBox="0 0 282.3237410071942 247.2" height="247.2" width="282.3237410071942"><g id="SvgjsG6738"><svg viewBox="0 0 282.3237410071942 247.2" height="247.2" width="282.3237410071942" id="SvgjsSvg6737"><g><svg viewBox="0 0 282.3237410071942 247.2" height="247.2" width="282.3237410071942"><g transform="matrix(1,0,0,1,0,0)"><svg width="282.3237410071942" viewBox="2.76 -39.48 46.510000000000005 40.73" height="247.2" data-palette-color="url(#7843e41e-e99b-4fc0-9635-62c8d9cf98b5)"><path d="M2.76 1.25L2.76-39.26 6.86-39.26 6.86-19.8 18.16-39.26 22.71-39.26 12.77-22.17 23.56 1.25 18.65 1.25 10.21-19.07 6.86-13.7 6.86 1.25 2.76 1.25ZM25.8 1.25L35.35-39.48 39.69-39.48 49.27 1.25 44.8 1.25 42.36-9.91 32.71-9.91 30.25 1.25 25.8 1.25ZM33.35-13.62L41.7-13.62 39.01-26.83 38.89-27.34Q37.96-31.96 37.6-34.77L37.6-34.77 37.4-34.77Q37.03-31.64 36.35-28.32L36.35-28.32Q36.23-27.69 36.06-26.83L36.06-26.83 33.35-13.62Z" opacity="1" transform="matrix(1,0,0,1,0,0)" fill="white" class="wordmark-text-0" id="SvgjsPath6736"></path></svg></g></svg></g></svg></g></svg></g><g transform="matrix(1,0,0,1,54.62964388489206,0)"><svg viewBox="0 0 174.47607194244603 110.50151223021581" height="110.50151223021581" width="174.47607194244603"><g><svg xmlns:x="http://ns.adobe.com/Extensibility/1.0/" xmlns:i="http://ns.adobe.com/AdobeIllustrator/10.0/" xmlns:graph="http://ns.adobe.com/Graphs/1.0/" xmlns="http://www.w3.org/2000/svg" xmlns:xlink="http://www.w3.org/1999/xlink" xmlns:a="http://ns.adobe.com/AdobeSVGViewerExtensions/3.0/" version="1.1" x="0" y="0" viewBox="5 25 90 57" enable-background="new 0 0 100 100" xml:space="preserve" height="110.50151223021581" width="174.47607194244603" class="icon-icon-0" data-fill-palette-color="accent" id="SvgjsSvg6735"><path d="M95 33C95 28.215 92.187 25 88 25H12C7.813 25 5 28.215 5 33 5 35.598 5.829 37.716 6.63 39.765 7.416 41.773 8.158 43.67 8.158 46 8.158 46.527 7.566 50.958 7.01 54.859L7 69H9V82H90V70H93V55L92.99 54.859C92.434 50.954 91.842 46.522 91.842 46 91.842 43.67 92.584 41.773 93.37 39.765 94.171 37.716 95 35.598 95 33M11 61H13V80H11zM88 80H15V70H88zM91.507 39.036C91.014 40.296 90.514 41.585 90.192 43H85V45H89.881C89.856 45.325 89.842 45.658 89.842 46 89.842 46.161 89.874 46.519 89.927 47H86V49H90.17C90.464 51.282 90.868 54.14 91 55.071V68H17V55L16.99 54.859C16.434 50.954 15.842 46.522 15.842 46 15.842 43.67 16.584 41.773 17.37 39.765 18.171 37.716 19 35.598 19 33 19 30.484 18.216 28.409 16.87 27H88C91.69 27 93 30.232 93 33 93 35.22 92.275 37.074 91.507 39.036" fill="black"></path></svg></g></svg></g><g></g></svg></g><defs><mask></mask></defs></svg><rect width="127.94908108299744" height="247.2" fill="black" stroke="none" visibility="hidden"></rect></g></mask><linearGradient x1="0" x2="1" y1="0.548" y2="0.55" id="7843e41e-e99b-4fc0-9635-62c8d9cf98b5"><stop stop-color="#ff6cab" offset="0"></stop><stop stop-color="#7366ff" offset="1"></stop></linearGradient><rect width="127.94908108299744" height="247.2" fill="url(#7843e41e-e99b-4fc0-9635-62c8d9cf98b5)" mask="url(#b08a930a-4a14-43f8-ab79-0600cc36bf20)" data-fill-palette-color="primary"></rect><mask id="ac5bdb9c-afb5-4710-bb80-34235c1094b7"><g id="SvgjsG6764"><svg viewBox="0 0 127.94908108299744 247.2" height="247.2" width="127.94908108299744"><g><svg viewBox="0 0 283.73535971223015 548.1819824510158" height="247.2" width="127.94908108299744"><g></g><g></g><g transform="matrix(1,0,0,1,0.7058093525179743,300.9819824510158)"><svg viewBox="0 0 282.3237410071942 247.2" height="247.2" width="282.3237410071942"><g id="SvgjsG6763"><svg viewBox="0 0 282.3237410071942 247.2" height="247.2" width="282.3237410071942" id="SvgjsSvg6762"><g><svg viewBox="0 0 282.3237410071942 247.2" height="247.2" width="282.3237410071942"><g transform="matrix(1,0,0,1,0,0)"><svg width="282.3237410071942" viewBox="2.76 -39.48 46.510000000000005 40.73" height="247.2" data-palette-color="url(#7843e41e-e99b-4fc0-9635-62c8d9cf98b5)"></svg></g></svg></g></svg></g></svg></g><g transform="matrix(1,0,0,1,54.62964388489206,0)"><svg viewBox="0 0 174.47607194244603 110.50151223021581" height="110.50151223021581" width="174.47607194244603"><g><svg xmlns:x="http://ns.adobe.com/Extensibility/1.0/" xmlns:i="http://ns.adobe.com/AdobeIllustrator/10.0/" xmlns:graph="http://ns.adobe.com/Graphs/1.0/" xmlns="http://www.w3.org/2000/svg" xmlns:xlink="http://www.w3.org/1999/xlink" xmlns:a="http://ns.adobe.com/AdobeSVGViewerExtensions/3.0/" version="1.1" x="0" y="0" viewBox="5 25 90 57" enable-background="new 0 0 100 100" xml:space="preserve" height="110.50151223021581" width="174.47607194244603" class="icon-icon-0" data-fill-palette-color="accent" id="SvgjsSvg6761"><path d="M95 33C95 28.215 92.187 25 88 25H12C7.813 25 5 28.215 5 33 5 35.598 5.829 37.716 6.63 39.765 7.416 41.773 8.158 43.67 8.158 46 8.158 46.527 7.566 50.958 7.01 54.859L7 69H9V82H90V70H93V55L92.99 54.859C92.434 50.954 91.842 46.522 91.842 46 91.842 43.67 92.584 41.773 93.37 39.765 94.171 37.716 95 35.598 95 33M11 61H13V80H11zM88 80H15V70H88zM91.507 39.036C91.014 40.296 90.514 41.585 90.192 43H85V45H89.881C89.856 45.325 89.842 45.658 89.842 46 89.842 46.161 89.874 46.519 89.927 47H86V49H90.17C90.464 51.282 90.868 54.14 91 55.071V68H17V55L16.99 54.859C16.434 50.954 15.842 46.522 15.842 46 15.842 43.67 16.584 41.773 17.37 39.765 18.171 37.716 19 35.598 19 33 19 30.484 18.216 28.409 16.87 27H88C91.69 27 93 30.232 93 33 93 35.22 92.275 37.074 91.507 39.036" fill="white"></path></svg></g></svg></g><g></g></svg></g><defs><mask></mask></defs><mask><g id="SvgjsG6760"><svg viewBox="0 0 127.94908108299744 247.2" height="247.2" width="127.94908108299744"><g><svg viewBox="0 0 283.73535971223015 548.1819824510158" height="247.2" width="127.94908108299744"><g><rect width="283.73535971223015" height="22.292751110399998" x="0" y="168.8594994302158" fill="black" opacity="1" stroke-width="0" stroke="transparent" fill-opacity="1" class="rect-yte-0" rx="1%" id="SvgjsRect6759" data-palette-color="url(#7843e41e-e99b-4fc0-9635-62c8d9cf98b5)"></rect></g><g><rect width="283.73535971223015" height="22.292751110399998" x="0" y="220.3312441406158" fill="black" opacity="1" stroke-width="0" stroke="transparent" fill-opacity="1" class="rect-yte-1" rx="1%" id="SvgjsRect6758" data-palette-color="url(#7843e41e-e99b-4fc0-9635-62c8d9cf98b5)"></rect></g><g transform="matrix(1,0,0,1,0.7058093525179743,300.9819824510158)"><svg viewBox="0 0 282.3237410071942 247.2" height="247.2" width="282.3237410071942"><g id="SvgjsG6757"><svg viewBox="0 0 282.3237410071942 247.2" height="247.2" width="282.3237410071942" id="SvgjsSvg6756"><g><svg viewBox="0 0 282.3237410071942 247.2" height="247.2" width="282.3237410071942"><g transform="matrix(1,0,0,1,0,0)"><svg width="282.3237410071942" viewBox="2.76 -39.48 46.510000000000005 40.73" height="247.2" data-palette-color="url(#7843e41e-e99b-4fc0-9635-62c8d9cf98b5)"><path d="M2.76 1.25L2.76-39.26 6.86-39.26 6.86-19.8 18.16-39.26 22.71-39.26 12.77-22.17 23.56 1.25 18.65 1.25 10.21-19.07 6.86-13.7 6.86 1.25 2.76 1.25ZM25.8 1.25L35.35-39.48 39.69-39.48 49.27 1.25 44.8 1.25 42.36-9.91 32.71-9.91 30.25 1.25 25.8 1.25ZM33.35-13.62L41.7-13.62 39.01-26.83 38.89-27.34Q37.96-31.96 37.6-34.77L37.6-34.77 37.4-34.77Q37.03-31.64 36.35-28.32L36.35-28.32Q36.23-27.69 36.06-26.83L36.06-26.83 33.35-13.62Z" opacity="1" transform="matrix(1,0,0,1,0,0)" fill="black" class="wordmark-text-0" id="SvgjsPath6755"></path></svg></g></svg></g></svg></g></svg></g><g transform="matrix(1,0,0,1,54.62964388489206,0)"><svg viewBox="0 0 174.47607194244603 110.50151223021581" height="110.50151223021581" width="174.47607194244603"><g><svg xmlns:x="http://ns.adobe.com/Extensibility/1.0/" xmlns:i="http://ns.adobe.com/AdobeIllustrator/10.0/" xmlns:graph="http://ns.adobe.com/Graphs/1.0/" xmlns="http://www.w3.org/2000/svg" xmlns:xlink="http://www.w3.org/1999/xlink" xmlns:a="http://ns.adobe.com/AdobeSVGViewerExtensions/3.0/" version="1.1" x="0" y="0" viewBox="5 25 90 57" enable-background="new 0 0 100 100" xml:space="preserve" height="110.50151223021581" width="174.47607194244603" class="icon-icon-0" data-fill-palette-color="accent" id="SvgjsSvg6754"><path d="M95 33C95 28.215 92.187 25 88 25H12C7.813 25 5 28.215 5 33 5 35.598 5.829 37.716 6.63 39.765 7.416 41.773 8.158 43.67 8.158 46 8.158 46.527 7.566 50.958 7.01 54.859L7 69H9V82H90V70H93V55L92.99 54.859C92.434 50.954 91.842 46.522 91.842 46 91.842 43.67 92.584 41.773 93.37 39.765 94.171 37.716 95 35.598 95 33M11 61H13V80H11zM88 80H15V70H88zM91.507 39.036C91.014 40.296 90.514 41.585 90.192 43H85V45H89.881C89.856 45.325 89.842 45.658 89.842 46 89.842 46.161 89.874 46.519 89.927 47H86V49H90.17C90.464 51.282 90.868 54.14 91 55.071V68H17V55L16.99 54.859C16.434 50.954 15.842 46.522 15.842 46 15.842 43.67 16.584 41.773 17.37 39.765 18.171 37.716 19 35.598 19 33 19 30.484 18.216 28.409 16.87 27H88C91.69 27 93 30.232 93 33 93 35.22 92.275 37.074 91.507 39.036" fill="black"></path></svg></g></svg></g><g></g></svg></g><defs><mask></mask></defs></svg><rect width="127.94908108299744" height="247.2" fill="black" stroke="none" visibility="hidden"></rect></g></mask></svg><rect width="127.94908108299744" height="247.2" fill="black" stroke="none" visibility="hidden"></rect></g></mask><linearGradient x1="0" x2="1" y1="0.548" y2="0.55" id="8aaf791c-0dea-4af2-b6c1-8cc89938a320"><stop stop-color="#ff6cab" offset="0"></stop><stop stop-color="#7366ff" offset="1"></stop></linearGradient><rect width="127.94908108299744" height="247.2" fill="url(#8aaf791c-0dea-4af2-b6c1-8cc89938a320)" mask="url(#ac5bdb9c-afb5-4710-bb80-34235c1094b7)" data-fill-palette-color="accent"></rect></svg><rect width="127.94908108299744" height="247.2" fill="none" stroke="none" visibility="hidden"></rect></g></svg></g></svg>